PathFileType	4	(X/Y/Z)	s10c0201.trc
DataRate	CameraRate	NumFrames	NumMarkers	Units	OrigDataRate	OrigDataStartFrame	OrigNumFrames
200	200	5	50	mm	200	500	2000
Frame#	Time	racr			lacr			c7			jug			rlel			rdr			llel			ldr			s2			lic			ric			lasi			rasi			rpsi			lpsi			rgt			lgt			rth1			rth2			rth3			rth4			rlfc			rmfc			rsh1			rsh2			rsh3			rsh4			rlmal			rmmal			rcal			rtoe			rmt5			lth1			lth2			lth4			lth3			llfc			lmfc			llmal			lmmal			lcal			lmt5			lsh1			lsh2			lsh3			lsh4			ltoe			SBIKE			LBIKE			RBIKE			
		X1	Y1	Z1	X2	Y2	Z2	X3	Y3	Z3	X4	Y4	Z4	X5	Y5	Z5	X6	Y6	Z6	X7	Y7	Z7	X8	Y8	Z8	X9	Y9	Z9	X10	Y10	Z10	X11	Y11	Z11	X12	Y12	Z12	X13	Y13	Z13	X14	Y14	Z14	X15	Y15	Z15	X16	Y16	Z16	X17	Y17	Z17	X18	Y18	Z18	X19	Y19	Z19	X20	Y20	Z20	X21	Y21	Z21	X22	Y22	Z22	X23	Y23	Z23	X24	Y24	Z24	X25	Y25	Z25	X26	Y26	Z26	X27	Y27	Z27	X28	Y28	Z28	X29	Y29	Z29	X30	Y30	Z30	X31	Y31	Z31	X32	Y32	Z32	X33	Y33	Z33	X34	Y34	Z34	X35	Y35	Z35	X36	Y36	Z36	X37	Y37	Z37	X38	Y38	Z38	X39	Y39	Z39	X40	Y40	Z40	X41	Y41	Z41	X42	Y42	Z42	X43	Y43	Z43	X44	Y44	Z44	X45	Y45	Z45	X46	Y46	Z46	X47	Y47	Z47	X48	Y48	Z48	X49	Y49	Z49	X50	Y50	Z50	
500	2.5000	389.439939	1295.135426	-155.955776	318.870938	1296.462441	-446.316930	298.152521	1351.837804	-290.765069	297.748474	1201.519866	-287.892876	448.176305	1060.797401	-12.436982	615.927491	911.404198	-41.812439	412.963487	1032.763923	-502.098834	607.965274	917.701476	-426.399746	-178.200047	1086.885903	-164.334681	-76.468505	1141.208647	-352.706670	33.517845	1116.954945	-67.424916	-30.093289	1058.220761	-335.299654	42.698779	1037.759605	-90.732209	-128.599918	1144.988739	-116.160162	-159.291627	1162.901347	-221.533852	-57.013843	985.971792	-16.601545	-142.455625	1007.707767	-389.965793	31.546298	869.988472	-16.881576	92.766469	812.936227	-47.013260	118.851068	732.352861	-58.755197	120.339730	835.592307	-59.819762	170.783364	644.015286	-82.298266	141.414927	631.002961	-194.716721	117.433412	544.043660	-40.652242	122.214157	455.648588	-49.262754	84.722747	377.871533	-45.327661	149.886850	451.494373	-75.838515	58.445762	269.270759	-54.627787	78.207517	279.366430	-134.098803	4.706996	272.294791	-102.591118	211.033955	139.749744	-102.801377	127.790741	156.992310	-41.015098	-22.407738	956.923314	-418.508245	64.270960	962.455054	-417.403462	71.765698	996.399603	-406.601351	143.291685	922.832895	-426.149353	256.117144	886.181217	-421.259022	273.763326	880.106947	-297.396200	76.229931	556.370360	-384.866016	91.453133	567.291764	-302.287409	18.423884	518.581744	-336.854121	192.013432	485.191203	-406.428765	190.331268	783.720459	-436.735352	178.115259	698.459427	-416.839183	121.110069	630.870010	-406.979227	205.084421	692.188829	-390.827844	271.115854	524.945469	-351.372472	-218.826855	833.292304	-214.139989	-104.092645	80.296497	-418.389565	-104.056982	80.388756	-18.320833	
501	2.5050	391.093925	1293.371518	-158.427851	319.616806	1294.822070	-447.417855	299.327417	1349.990025	-292.212224	298.534856	1199.517169	-289.343038	447.731249	1060.137137	-13.041673	615.742360	911.362707	-42.341199	412.165207	1030.954464	-503.815344	607.820120	917.907016	-426.807904	-177.799197	1087.635903	-164.487138	-76.354298	1141.320183	-353.289151	33.934626	1116.994083	-68.010554	-29.953329	1058.134585	-335.716751	42.739196	1038.216855	-90.968387	-128.201935	1145.792384	-116.523285	-158.729226	1163.557514	-221.902452	-57.049220	986.862557	-16.576950	-142.315372	1008.141584	-390.048464	31.848466	870.794255	-17.224983	93.056559	813.893066	-47.796633	119.283558	733.285710	-59.216008	120.502216	836.547084	-60.427418	171.145847	644.849453	-82.812322	141.082286	631.940549	-195.031813	117.581646	545.020707	-41.015041	121.546467	456.674240	-49.676262	83.289836	379.113025	-45.535158	148.889664	452.197934	-76.511566	55.775355	270.607811	-55.013005	75.672768	280.414380	-134.382078	2.153530	273.728174	-103.294568	207.815027	140.103234	-102.619067	124.464624	157.850119	-41.189483	-21.978915	957.247726	-418.314775	64.725945	962.485903	-416.862436	72.297675	996.379356	-405.967991	143.645889	922.516291	-425.183100	256.580767	885.396965	-419.663578	273.619115	879.185120	-295.934528	78.644667	554.211835	-384.890105	92.839670	564.892506	-302.371916	21.209216	515.655542	-336.909028	195.138260	484.204923	-406.594676	191.366380	782.804479	-435.829611	179.782717	697.138433	-416.176180	123.129691	629.185272	-406.650970	206.724147	690.999951	-390.020227	273.807095	524.768381	-351.437394	-218.785747	833.280756	-214.143696	-104.042094	80.360876	-418.403176	-104.060494	80.385438	-18.316022	
502	2.5100	392.886726	1291.629707	-160.899416	320.444780	1293.124030	-448.420686	300.533473	1348.109438	-293.535583	299.511370	1197.478724	-290.635270	447.121572	1059.457053	-13.812401	616.028062	911.630297	-42.832377	411.633699	1029.169329	-505.598101	607.634984	918.061188	-427.265606	-177.382652	1088.498665	-164.610879	-76.074423	1141.437638	-353.966871	34.350030	1117.030962	-68.615271	-29.719562	1058.080527	-336.129707	42.724999	1038.466336	-91.168438	-127.882172	1146.853417	-116.866582	-158.179645	1164.231972	-222.276989	-57.110365	987.818344	-16.622136	-142.008963	1008.623649	-390.159734	32.192147	871.570093	-17.561431	93.390634	814.789373	-48.213737	119.710118	734.260069	-59.617732	120.697224	837.461774	-61.088299	171.632412	645.476850	-83.321074	141.150336	633.132103	-195.157171	117.635811	545.908153	-41.340361	120.725317	457.468467	-49.969217	81.697010	380.439415	-45.714667	147.834212	452.905441	-76.934232	52.934033	271.914180	-55.592590	73.264803	281.589128	-134.752023	-0.304114	275.245805	-104.144046	204.561390	140.485294	-102.215900	120.919806	158.770843	-41.420027	-21.349656	957.498632	-417.936765	65.318977	962.473553	-416.183650	72.964204	996.312611	-405.312282	144.114055	922.196382	-424.181541	257.252580	884.757229	-418.054033	273.650100	878.454688	-294.362252	81.119830	552.282205	-385.176688	94.831017	562.626704	-302.274848	24.151762	512.868288	-336.782960	198.258525	483.027521	-406.605075	192.650577	781.596208	-434.693518	181.538808	695.781726	-415.420139	125.283817	627.522800	-406.307247	208.402938	689.751766	-389.187635	276.525667	524.419903	-351.579575	-218.760625	833.297176	-214.124223	-104.058364	80.368112	-418.442530	-104.047392	80.392279	-18.319028	
503	2.5150	394.599253	1289.852033	-163.400522	321.327579	1291.335391	-449.469026	301.792607	1346.213201	-294.905258	300.400801	1195.423563	-291.925043	446.679076	1058.819081	-14.660062	615.750791	911.524719	-43.399631	410.883431	1027.174835	-507.268990	607.405409	918.201635	-427.758879	-176.946140	1089.206788	-164.765252	-75.620476	1141.561082	-354.642722	34.747638	1117.120795	-69.227600	-29.378408	1058.035626	-336.465534	42.776949	1038.827346	-91.343628	-127.423165	1147.710566	-117.218339	-157.554106	1164.961294	-222.672719	-57.148337	988.772855	-16.608653	-141.476782	1009.020172	-390.338146	32.480931	872.400566	-17.781034	93.871362	815.611127	-48.563549	120.150290	735.046566	-59.999053	120.870145	838.294940	-61.800608	172.284302	646.157765	-83.813919	141.038296	634.093894	-195.481010	117.421059	547.070729	-41.594374	119.694972	458.661246	-50.197585	79.934597	381.770957	-45.990846	146.676022	453.717694	-77.325194	50.054659	273.306309	-56.313398	70.898405	282.888505	-135.323257	-2.911041	276.928301	-105.333582	201.440422	141.188217	-101.855541	117.373784	159.881431	-41.665063	-20.613398	957.788732	-417.860739	66.066819	962.409689	-415.581063	73.787519	996.171680	-404.627335	144.725965	921.770682	-423.128349	257.926137	883.962505	-416.336291	273.681797	877.555298	-292.946328	83.650588	550.187860	-385.286372	97.228567	560.395736	-302.106831	27.062611	510.088175	-336.732968	201.360566	481.860656	-406.651172	193.962536	780.479852	-433.539518	183.299607	694.525462	-414.556778	127.444620	625.896653	-405.922560	210.164796	688.539646	-388.376428	279.333335	523.943410	-351.690915	-218.743700	833.306201	-214.126712	-104.056283	80.393618	-418.470746	-104.060461	80.396697	-18.304555	
504	2.5200	396.358334	1287.996952	-165.906559	322.326305	1289.558604	-450.437346	303.118691	1344.271698	-296.267949	301.381115	1193.319883	-293.232372	446.202080	1058.010219	-15.619510	615.376246	911.332655	-43.966341	410.108274	1025.209316	-509.078571	607.143260	918.276260	-428.127001	-176.531956	1090.194692	-165.073449	-75.145210	1141.719168	-355.288315	35.148182	1117.195623	-69.799232	-28.911480	1057.968857	-336.769228	42.763210	1039.055279	-91.487471	-126.948125	1148.732134	-117.648932	-156.834961	1165.657621	-223.193694	-57.212763	989.649032	-16.660323	-140.763574	1009.519011	-390.548016	32.878363	873.033212	-18.099240	94.243550	816.374473	-48.893602	120.670545	735.832488	-60.388236	121.135067	839.113612	-62.369261	172.913125	646.741105	-84.224188	141.040876	635.154160	-195.758887	117.125801	548.029337	-41.807019	118.440397	459.557291	-50.524980	77.989059	383.156165	-46.442984	145.351534	454.531567	-77.639415	47.243820	274.835231	-56.982105	68.368625	284.303300	-136.017812	-5.557435	278.514746	-106.012805	198.139971	141.788674	-101.695897	114.163728	161.177980	-41.890608	-19.728972	957.947551	-417.687834	66.950871	962.232718	-414.943479	74.760220	996.027382	-403.964596	145.508240	921.290650	-422.002177	258.658157	883.224649	-414.699916	273.831214	876.712309	-291.281219	86.316101	548.029385	-385.047457	99.653737	558.157415	-301.871936	29.811086	507.380103	-336.781513	204.497676	480.691955	-406.746103	195.329651	779.341669	-432.397178	185.105512	693.392373	-413.824261	129.650423	624.193090	-405.392921	211.958908	687.399745	-387.541320	282.101416	523.408285	-351.795481	-218.734502	833.305627	-214.115335	-104.044297	80.454276	-418.524143	-104.042616	80.395757	-18.314567	
